<?xml version="1.0" encoding="UTF-8"?>
<!DOCTYPE svg PUBLIC "-//W3C//DTD SVG 1.1//EN"
    "http://www.w3.org/Graphics/SVG/1.1/DTD/svg11.dtd"><svg font-size="1" viewBox="0.0 0.0 300.0 300.0" stroke="rgb(0,0,0)" xmlns="http://www.w3.org/2000/svg" width="300.0000" stroke-opacity="1" height="300.0000" version="1.1" xmlns:xlink="http://www.w3.org/1999/xlink"><defs></defs><g stroke-linejoin="miter" fill-opacity="0.0" fill="rgb(0,0,0)" stroke="rgb(0,0,0)" stroke-linecap="butt" stroke-miterlimit="10.0" stroke-opacity="1.0" stroke-width="2.0"><path d="M 250.0000,236.6025 c 0.0000,-27.6142 -22.3858,-50.0000 -50.0000 -50.0000c -27.6142,-0.0000 -50.0000,22.3858 -50.0000 50.0000c -0.0000,27.6142 22.3858,50.0000 50.0000 50.0000c 27.6142,0.0000 50.0000,-22.3858 50.0000 -50.0000Z"/></g><g stroke-linejoin="miter" fill-opacity="0.0" fill="rgb(0,0,0)" stroke="rgb(0,0,0)" stroke-linecap="butt" stroke-miterlimit="10.0" stroke-opacity="1.0" stroke-width="2.0"><path d="M 150.0000,236.6025 c 0.0000,-27.6142 -22.3858,-50.0000 -50.0000 -50.0000c -27.6142,-0.0000 -50.0000,22.3858 -50.0000 50.0000c -0.0000,27.6142 22.3858,50.0000 50.0000 50.0000c 27.6142,0.0000 50.0000,-22.3858 50.0000 -50.0000Z"/></g><g stroke-linejoin="miter" fill-opacity="0.0" fill="rgb(0,0,0)" stroke="rgb(0,0,0)" stroke-linecap="butt" stroke-miterlimit="10.0" stroke-opacity="1.0" stroke-width="2.0"><path d="M 100.0000,150.0000 c 0.0000,-27.6142 -22.3858,-50.0000 -50.0000 -50.0000c -27.6142,-0.0000 -50.0000,22.3858 -50.0000 50.0000c -0.0000,27.6142 22.3858,50.0000 50.0000 50.0000c 27.6142,0.0000 50.0000,-22.3858 50.0000 -50.0000Z"/></g><g stroke-linejoin="miter" fill-opacity="0.0" fill="rgb(0,0,0)" stroke="rgb(0,0,0)" stroke-linecap="butt" stroke-miterlimit="10.0" stroke-opacity="1.0" stroke-width="2.0"><path d="M 150.0000,63.3975 c 0.0000,-27.6142 -22.3858,-50.0000 -50.0000 -50.0000c -27.6142,-0.0000 -50.0000,22.3858 -50.0000 50.0000c -0.0000,27.6142 22.3858,50.0000 50.0000 50.0000c 27.6142,0.0000 50.0000,-22.3858 50.0000 -50.0000Z"/></g><g stroke-linejoin="miter" fill-opacity="0.0" fill="rgb(0,0,0)" stroke="rgb(0,0,0)" stroke-linecap="butt" stroke-miterlimit="10.0" stroke-opacity="1.0" stroke-width="2.0"><path d="M 250.0000,63.3975 c 0.0000,-27.6142 -22.3858,-50.0000 -50.0000 -50.0000c -27.6142,-0.0000 -50.0000,22.3858 -50.0000 50.0000c -0.0000,27.6142 22.3858,50.0000 50.0000 50.0000c 27.6142,0.0000 50.0000,-22.3858 50.0000 -50.0000Z"/></g><g stroke-linejoin="miter" fill-opacity="0.0" fill="rgb(0,0,0)" stroke="rgb(0,0,0)" stroke-linecap="butt" stroke-miterlimit="10.0" stroke-opacity="1.0" stroke-width="2.0"><path d="M 300.0000,150.0000 c 0.0000,-27.6142 -22.3858,-50.0000 -50.0000 -50.0000c -27.6142,-0.0000 -50.0000,22.3858 -50.0000 50.0000c -0.0000,27.6142 22.3858,50.0000 50.0000 50.0000c 27.6142,0.0000 50.0000,-22.3858 50.0000 -50.0000Z"/></g></svg>